<svg xmlns="http://www.w3.org/2000/svg" width="295" height="350" viewBox="0 0 295 350"><g><g opacity=".03"><path fill="#fff" d="M147.187.03c33.415 0 65.859 11.275 91.44 31.75v-.001c33.415 26.73 53.069 64.735 55.447 106.99 2.276 41.718-13.326 82.534-42.791 111.975l-97.671 96.319c-3.784 3.747-10.346 3.713-14.129-.034l-96.292-96.216C13.661 221.305-1.976 180.456.334 138.77 2.678 96.516 22.365 58.51 55.747 31.78 81.294 11.304 113.772.03 147.187.03zM81.562 146.904c0 36.166 29.43 65.574 65.625 65.574 36.193 0 65.658-29.407 65.624-65.574 0-36.165-29.43-65.573-65.624-65.573-36.194 0-65.625 29.407-65.625 65.573z"/></g><g opacity=".03"><path fill="#fff" d="M147.196 114.95c-17.645 0-31.976 14.32-31.976 31.95 0 17.632 14.33 31.951 31.976 31.951 17.645 0 31.975-14.32 31.975-31.95 0-17.632-14.33-31.951-31.975-31.951z"/></g></g></svg>