<svg xmlns="http://www.w3.org/2000/svg" width="86" height="86" viewBox="0 0 86 86"><defs><mask id="mcs4b" width="2" height="2" x="-1" y="-1"><path fill="#fff" d="M31 31h24v24H31z"/><path d="M43 55c6.627 0 12-5.373 12-12s-5.373-12-12-12-12 5.373-12 12 5.373 12 12 12z"/></mask><filter id="mcs4a" width="114" height="114" x="-14" y="-14" filterUnits="userSpaceOnUse"><feOffset in="SourceGraphic" result="FeOffset1023Out"/><feGaussianBlur in="FeOffset1023Out" result="FeGaussianBlur1024Out" stdDeviation="14 14"/></filter></defs><g><g><g filter="url(#mcs4a)"><path fill="none" d="M43 55c6.627 0 12-5.373 12-12s-5.373-12-12-12-12 5.373-12 12 5.373 12 12 12z" mask="url(&quot;#mcs4b&quot;)"/><path fill="#4af6cd" fill-opacity=".84" d="M43 55c6.627 0 12-5.373 12-12s-5.373-12-12-12-12 5.373-12 12 5.373 12 12 12z"/></g><path fill="#4af6cd" d="M43 55c6.627 0 12-5.373 12-12s-5.373-12-12-12-12 5.373-12 12 5.373 12 12 12z"/></g></g></svg>