<svg xmlns="http://www.w3.org/2000/svg" width="33" height="25" viewBox="0 0 33 25"><g><g><path fill="#4af6cd" d="M26.361 4.752l.263-.236c.174-.155.344-.312.51-.469.161-.166.353-.276.52-.417.173-.135.34-.274.51-.399.35-.224.676-.472 1.006-.661.331-.185.639-.388.945-.526l.433-.224c.143-.063.28-.125.41-.181.52-.241.95-.388 1.246-.496l.457-.146.015-.005a.18.18 0 0 0 0-.342s-.18-.057-.509-.117c-.164-.026-.372-.066-.613-.081-.243-.02-.525-.05-.84-.04-.157.002-.325-.002-.5.008l-.547.05c-.385.027-.79.115-1.23.205-.224.036-.442.106-.67.176l-.706.22c-.462.194-.967.387-1.46.65a27.85 27.85 0 0 0-.742.428l-.381.228-.362.264c-.241.185-.487.37-.738.56-.26.183-.466.42-.704.638-.23.227-.465.454-.701.685-.211.251-.422.507-.63.772-.204.266-.427.528-.617.81-.18.288-.352.586-.53.883-.168.305-.356.595-.505.918-.147.329-.283.665-.42 1.002a36.06 36.06 0 0 0-.405 1.016l-.267.954-.27.96-.15.53-.119.437c-.041.146-.075.294-.121.438l-.158.424-.158.427c-.055.142-.125.275-.186.414a12.421 12.421 0 0 1-1.975 3.037 14.844 14.844 0 0 1-2.693 2.38c-.976.677-2.008 1.22-3.022 1.678a23.313 23.313 0 0 1-2.967 1.082 30.14 30.14 0 0 1-4.696.962c-1.158.145-1.823.155-1.823.155a.175.175 0 0 0-.17.151.174.174 0 0 0 .152.195h.003s.68.086 1.87.111c.595.013 1.32.007 2.152-.045a26.612 26.612 0 0 0 2.791-.306c2.032-.342 4.422-.962 6.776-2.242 1.173-.637 2.337-1.436 3.374-2.434 1.04-.989 1.963-2.159 2.694-3.444.092-.161.192-.317.276-.482l.245-.495c.164-.331.324-.665.457-1.006l.21-.51.05-.128.027-.063.007-.017-.017.052.012-.029.098-.23.396-.917.394-.909c.148-.252.284-.505.419-.756.134-.251.27-.499.392-.751.138-.248.302-.487.447-.73.145-.244.29-.486.424-.73.15-.233.314-.449.464-.673.156-.221.296-.45.447-.668l.485-.607c.08-.101.158-.201.238-.3.076-.104.154-.204.243-.288.17-.182.339-.36.505-.536l.24-.264z"/></g></g></svg>